<?xml version="1.0" encoding="UTF-8" standalone="no"?>
<!DOCTYPE svg PUBLIC "-//W3C//DTD SVG 1.1//EN" "http://www.w3.org/Graphics/SVG/1.1/DTD/svg11.dtd">
<svg version="1.1" xmlns="http://www.w3.org/2000/svg" xmlns:xlink="http://www.w3.org/1999/xlink" preserveAspectRatio="xMidYMid meet" viewBox="0 0 1544 500" width="1544" height="500"><defs><path d="M1544 0L1544 500L0 500L0 0L1544 0Z" id="h6JlEqZuHt"></path><path d="M785.88 94.31C769.33 73.31 747.79 65.34 725.93 65.99C704.07 66.64 682.86 76.24 667.59 89.75C652.32 76.24 631.11 66.64 609.25 65.99C587.39 65.34 565.85 73.31 549.3 94.31C530.98 117.74 533.87 156.79 554.76 196.01C575.34 235.39 614.07 274.28 667.59 297.06C721.11 274.28 759.84 235.39 780.74 196.01C801.31 156.79 804.2 117.74 785.88 94.31Z" id="eCvO4glUo"></path><path d="M1007.08 212.52C1007.08 223.37 1007.08 310.18 1007.08 321.03C1007.08 338.09 993.3 352.04 976.45 352.04C974.41 352.04 964.2 352.04 945.83 352.04C940.73 357.2 915.21 383.04 869.27 429.55C869.27 383.04 869.27 357.2 869.27 352.04C850.9 352.04 840.69 352.04 838.65 352.04C821.81 352.04 808.03 338.09 808.03 321.03C808.03 310.18 808.03 223.37 808.03 212.52C808.03 195.47 821.81 181.51 838.65 181.51C866.21 181.51 962.67 181.51 976.45 181.51C993.3 181.51 1007.08 195.47 1007.08 212.52Z" id="c4lQTwbld0"></path></defs><g><g><g><use xlink:href="#h6JlEqZuHt" opacity="1" fill="#826eb4" fill-opacity="1"></use><g><use xlink:href="#h6JlEqZuHt" opacity="1" fill-opacity="0" stroke="#000000" stroke-width="1" stroke-opacity="0"></use></g></g><g><use xlink:href="#eCvO4glUo" opacity="1" fill="#ffffff" fill-opacity="1"></use><g><use xlink:href="#eCvO4glUo" opacity="1" fill-opacity="0" stroke="#000000" stroke-width="1" stroke-opacity="0"></use></g></g><g><use xlink:href="#c4lQTwbld0" opacity="1" fill="#ffffff" fill-opacity="1"></use><g><use xlink:href="#c4lQTwbld0" opacity="1" fill-opacity="0" stroke="#000000" stroke-width="1" stroke-opacity="0"></use></g></g></g></g></svg>