<?xml version="1.0" encoding="UTF-8" standalone="no"?>
<!DOCTYPE svg PUBLIC "-//W3C//DTD SVG 1.1//EN" "http://www.w3.org/Graphics/SVG/1.1/DTD/svg11.dtd">
<svg version="1.1" xmlns="http://www.w3.org/2000/svg" xmlns:xlink="http://www.w3.org/1999/xlink" preserveAspectRatio="xMidYMid meet" viewBox="0 0 442 442" width="442" height="442"><defs><path d="M436.01 221.8C436.01 340.37 339.75 436.63 221.18 436.63C102.62 436.63 6.36 340.37 6.36 221.8C6.36 103.24 102.62 6.98 221.18 6.98C339.75 6.98 436.01 103.24 436.01 221.8Z" id="e6Cztfl9"></path><path d="M239.19 198.5C254.97 168.79 257.19 139.2 243.13 121.45C230.43 105.55 213.91 99.51 197.15 100C180.38 100.49 164.11 107.77 152.4 118C140.68 107.77 124.41 100.49 107.65 100C90.88 99.51 74.36 105.55 61.66 121.45C47.61 139.2 49.83 168.79 65.85 198.5C81.63 228.34 111.34 257.8 152.4 275.06C193.45 257.8 223.16 228.34 239.19 198.5Z" id="a1m0pkRFgL"></path><path d="M373.11 189.23C386.03 189.23 396.6 199.81 396.6 212.72C396.6 220.95 396.6 286.72 396.6 294.94C396.6 307.86 386.03 318.43 373.11 318.43C371.54 318.43 363.71 318.43 349.62 318.43L290.9 377.15L290.9 318.43C276.8 318.43 268.97 318.43 267.41 318.43C254.49 318.43 243.92 307.86 243.92 294.94C243.92 286.72 243.92 220.95 243.92 212.72C243.92 199.81 254.49 189.23 267.41 189.23C288.55 189.23 362.54 189.23 373.11 189.23Z" id="a2bfj5uZht"></path></defs><g><g><g><use xlink:href="#e6Cztfl9" opacity="1" fill="#ffffff" fill-opacity="0"></use><g><use xlink:href="#e6Cztfl9" opacity="1" fill-opacity="0" stroke="#826eb4" stroke-width="10" stroke-opacity="1"></use></g></g><g><use xlink:href="#a1m0pkRFgL" opacity="1" fill="#826eb4" fill-opacity="1"></use><g><use xlink:href="#a1m0pkRFgL" opacity="1" fill-opacity="0" stroke="#000000" stroke-width="1" stroke-opacity="0"></use></g></g><g><use xlink:href="#a2bfj5uZht" opacity="1" fill="#826eb4" fill-opacity="1"></use><g><use xlink:href="#a2bfj5uZht" opacity="1" fill-opacity="0" stroke="#ffffff" stroke-width="0" stroke-opacity="0"></use></g></g></g></g></svg>